<?xml version="1.0" encoding="UTF-8" standalone="no"?>
<!-- Created with Inkscape (http://www.inkscape.org/) -->

<svg
   xmlns:dc="http://purl.org/dc/elements/1.1/"
   xmlns:cc="http://creativecommons.org/ns#"
   xmlns:rdf="http://www.w3.org/1999/02/22-rdf-syntax-ns#"
   xmlns:svg="http://www.w3.org/2000/svg"
   xmlns="http://www.w3.org/2000/svg"
   xmlns:sodipodi="http://sodipodi.sourceforge.net/DTD/sodipodi-0.dtd"
   xmlns:inkscape="http://www.inkscape.org/namespaces/inkscape"
   width="1001"
   height="250"
   viewBox="0 0 264.84791 66.145837"
   version="1.1"
   id="svg8"
   inkscape:version="0.92.2 (5c3e80d, 2017-08-06)"
   sodipodi:docname="logo.svg">
  <defs
     id="defs2">
    <clipPath
       id="clipPath831"
       clipPathUnits="userSpaceOnUse">
      <path
         inkscape:connector-curvature="0"
         id="path829"
         d="M 0,638 H 1000 V 0 H 0 Z" />
    </clipPath>
    <clipPath
       id="clipPath839"
       clipPathUnits="userSpaceOnUse">
      <path
         inkscape:connector-curvature="0"
         id="path837"
         d="M 0,638 H 1000 V 0 H 0 Z" />
    </clipPath>
  </defs>
  <sodipodi:namedview
     id="base"
     pagecolor="#ffffff"
     bordercolor="#666666"
     borderopacity="1.0"
     inkscape:pageopacity="0.0"
     inkscape:pageshadow="2"
     inkscape:zoom="0.7"
     inkscape:cx="399.91304"
     inkscape:cy="242.52487"
     inkscape:document-units="mm"
     inkscape:current-layer="g823"
     showgrid="false"
     fit-margin-top="5"
     fit-margin-bottom="5"
     fit-margin-right="5"
     fit-margin-left="5"
     inkscape:window-width="1920"
     inkscape:window-height="1017"
     inkscape:window-x="-8"
     inkscape:window-y="-8"
     inkscape:window-maximized="1"
     units="px" />
  <metadata
     id="metadata5">
    <rdf:RDF>
      <cc:Work
         rdf:about="">
        <dc:format>image/svg+xml</dc:format>
        <dc:type
           rdf:resource="http://purl.org/dc/dcmitype/StillImage" />
        <dc:title></dc:title>
      </cc:Work>
    </rdf:RDF>
  </metadata>
  <g
     inkscape:label="Layer 1"
     inkscape:groupmode="layer"
     id="layer1"
     transform="translate(-1.2883269,-86.047553)">
    <g
       transform="matrix(0.35277777,0,0,-0.35277777,-137.80575,256.55859)"
       inkscape:label="logo (2)"
       id="g823">
      <g
         id="g825"
         transform="matrix(0.44331091,0,0,0.44331091,559.35527,248.127)">
        <g
           clip-path="url(#clipPath831)"
           id="g827">
          <g
             transform="translate(246.9092,120.1406)"
             id="g847">
            <path
               inkscape:connector-curvature="0"
               id="path849"
               style="fill:#00868e;fill-opacity:1;fill-rule:nonzero;stroke:none"
               d="M 0,0 20.015,58.057 H 39.896 L 59.909,0 H 44.138 L 41.22,10.34 H 18.82 L 15.772,0 Z m 22.135,21.605 h 15.771 l -5.83,19.219 c -0.265,0.53 -0.53,1.457 -0.797,2.787 -0.398,1.323 -0.795,3.043 -1.192,5.034 -0.398,-1.461 -0.662,-2.784 -1.062,-4.11 -0.397,-1.322 -0.662,-2.519 -1.059,-3.711 z" />
          </g>
          <g
             transform="translate(311.457,120.1406)"
             id="g851">
            <path
               inkscape:connector-curvature="0"
               id="path853"
               style="fill:#00868e;fill-opacity:1;fill-rule:nonzero;stroke:none"
               d="m 0,0 v 40.029 h 13.387 v -9.41 c 1.326,3.447 3.182,5.965 5.566,7.69 2.387,1.72 5.304,2.648 8.616,2.648 0.661,0 1.192,-0.133 1.723,-0.133 0.53,0 1.192,-0.135 1.722,-0.135 L 29.689,27.836 c -0.928,0.266 -1.723,0.533 -2.517,0.664 -0.795,0.133 -1.592,0.133 -2.386,0.133 -3.446,0 -6.098,-1.065 -7.953,-3.182 C 14.978,23.332 14.05,20.414 14.05,16.568 V 0 Z" />
          </g>
          <g
             transform="translate(390.7183,181.6387)"
             id="g855">
            <path
               inkscape:connector-curvature="0"
               id="path857"
               style="fill:#00868e;fill-opacity:1;fill-rule:nonzero;stroke:none"
               d="m 0,0 v -61.498 h -12.989 v 6.494 c -1.724,-2.648 -3.844,-4.769 -5.966,-6.096 -2.253,-1.322 -4.771,-1.984 -7.554,-1.984 -5.567,0 -10.073,1.984 -13.387,5.83 -3.314,3.977 -5.036,9.147 -5.036,15.772 0,6.359 1.722,11.531 5.036,15.375 3.314,3.976 7.556,5.962 12.856,5.962 3.446,0 6.229,-0.664 8.35,-1.853 2.121,-1.191 3.977,-3.314 5.701,-6.098 -0.265,0.928 -0.265,1.989 -0.397,3.182 -0.135,1.193 -0.135,2.519 -0.135,3.975 V 0 Z m -12.459,-41.482 c 0,3.05 -0.795,5.566 -2.519,7.287 -1.591,1.859 -3.845,2.787 -6.76,2.787 -2.783,0 -5.036,-0.928 -6.761,-2.787 -1.588,-1.721 -2.385,-4.237 -2.385,-7.287 0,-3.182 0.797,-5.698 2.385,-7.426 1.725,-1.852 3.978,-2.647 6.761,-2.647 2.915,0 5.169,0.795 6.76,2.647 1.724,1.859 2.519,4.244 2.519,7.426" />
          </g>
          <g
             transform="translate(442.2769,160.1699)"
             id="g859">
            <path
               inkscape:connector-curvature="0"
               id="path861"
               style="fill:#00868e;fill-opacity:1;fill-rule:nonzero;stroke:none"
               d="m 0,0 v -20.412 c 0,-4.506 -0.265,-7.953 -1.061,-10.072 -0.663,-2.254 -1.989,-4.11 -3.71,-5.83 -1.724,-1.727 -3.978,-3.051 -6.496,-3.979 -2.65,-0.793 -5.831,-1.322 -9.41,-1.322 -3.578,0 -6.626,0.529 -9.277,1.322 -2.651,0.928 -4.771,2.252 -6.628,3.979 -1.724,1.587 -3.048,3.576 -3.712,5.83 -0.663,2.119 -1.06,5.566 -1.06,10.072 V 0 h 13.519 v -21.336 c 0,-3.316 0.532,-5.836 1.591,-7.293 1.195,-1.457 2.916,-2.252 5.434,-2.252 2.518,0 4.375,0.795 5.435,2.252 1.06,1.457 1.59,3.842 1.59,7.293 V 0 Z" />
          </g>
          <path
             inkscape:connector-curvature="0"
             id="path863"
             style="fill:#00868e;fill-opacity:1;fill-rule:nonzero;stroke:none"
             d="m 452.88,160.17 h 14.05 v -40.029 h -14.05 z m -0.795,12.461 c 0,2.119 0.795,3.974 2.386,5.435 1.457,1.588 3.313,2.25 5.434,2.25 2.254,0 4.108,-0.662 5.567,-2.119 1.458,-1.592 2.254,-3.316 2.254,-5.566 0,-2.123 -0.796,-3.977 -2.254,-5.57 -1.592,-1.457 -3.447,-2.25 -5.567,-2.25 -2.121,0 -3.977,0.793 -5.434,2.25 -1.591,1.593 -2.386,3.447 -2.386,5.57" />
          <g
             transform="translate(477.7983,120.1406)"
             id="g865">
            <path
               inkscape:connector-curvature="0"
               id="path867"
               style="fill:#00868e;fill-opacity:1;fill-rule:nonzero;stroke:none"
               d="m 0,0 v 40.029 h 12.856 v -8.088 c 1.988,3.186 4.109,5.567 6.496,7.163 2.517,1.455 5.434,2.25 8.881,2.25 2.648,0 4.904,-0.53 6.891,-1.325 1.99,-0.795 3.712,-1.984 4.903,-3.58 1.059,-1.322 1.854,-2.912 2.256,-4.902 0.529,-1.986 0.662,-4.774 0.662,-8.613 V 0 h -14.05 v 21.473 c 0,3.181 -0.53,5.433 -1.59,6.896 -1.062,1.455 -2.651,2.25 -5.035,2.25 -2.918,0 -5.04,-1.058 -6.365,-3.316 C 14.58,25.184 13.918,21.605 13.918,16.834 V 0 Z" />
          </g>
          <g
             transform="translate(573.2275,140.0254)"
             id="g869">
            <path
               inkscape:connector-curvature="0"
               id="path871"
               style="fill:#00868e;fill-opacity:1;fill-rule:nonzero;stroke:none"
               d="m 0,0 c 0,-2.918 -0.529,-5.566 -1.721,-8.221 -1.059,-2.515 -2.653,-4.904 -4.905,-6.89 -2.118,-2.125 -4.507,-3.711 -7.287,-4.774 -2.653,-1.056 -5.439,-1.586 -8.484,-1.586 -3.05,0 -5.963,0.53 -8.617,1.586 -2.653,1.063 -5.037,2.649 -7.155,4.774 -2.124,1.986 -3.845,4.242 -4.904,6.89 -1.064,2.522 -1.594,5.303 -1.594,8.221 0,2.918 0.53,5.697 1.594,8.35 1.059,2.515 2.648,4.904 4.904,6.892 1.986,2.117 4.37,3.578 7.155,4.639 2.654,1.058 5.567,1.588 8.617,1.588 3.045,0 5.962,-0.53 8.612,-1.588 2.652,-1.061 5.041,-2.522 7.159,-4.639 2.252,-2.119 3.846,-4.377 4.905,-7.025 C -0.529,5.697 0,2.918 0,0 m -14.05,0 c 0,3.049 -0.795,5.299 -2.252,7.021 -1.457,1.727 -3.579,2.655 -6.095,2.655 -2.654,0 -4.639,-0.928 -6.096,-2.655 -1.461,-1.722 -2.256,-3.972 -2.256,-7.021 0,-2.918 0.795,-5.303 2.256,-7.027 1.457,-1.725 3.442,-2.518 6.096,-2.518 2.516,0 4.638,0.793 6.095,2.518 1.457,1.724 2.252,4.109 2.252,7.027" />
          </g>
          <g
             transform="translate(593.7715,178.1973)"
             id="g873">
            <path
               inkscape:connector-curvature="0"
               id="path875"
               style="fill:#e5ad23;fill-opacity:1;fill-rule:nonzero;stroke:none"
               d="m 0,0 h 15.776 v -37.643 c 0,-4.109 -0.264,-7.287 -0.799,-9.545 -0.53,-2.117 -1.457,-4.109 -2.649,-5.832 -1.589,-2.115 -3.58,-3.843 -5.964,-4.902 -2.387,-1.191 -4.903,-1.721 -7.821,-1.721 -3.712,0 -7.022,0.793 -9.808,2.383 -2.914,1.588 -5.301,3.846 -7.289,6.889 l 9.676,8.75 c 0.133,-1.723 0.796,-3.045 1.589,-3.977 0.928,-0.927 1.987,-1.326 3.316,-1.326 1.456,0 2.516,0.797 3.178,2.524 0.529,1.586 0.795,5.83 0.795,12.455 z" />
          </g>
          <g
             transform="translate(616.4375,123.457)"
             id="g877">
            <path
               inkscape:connector-curvature="0"
               id="path879"
               style="fill:#e5ad23;fill-opacity:1;fill-rule:nonzero;stroke:none"
               d="M 0,0 3.051,10.734 C 5.036,9.01 7.288,7.553 9.809,6.627 c 2.519,-0.928 4.903,-1.459 7.424,-1.459 1.854,0 3.178,0.268 4.105,0.928 0.933,0.531 1.329,1.326 1.329,2.384 0,1.86 -1.858,3.182 -5.571,3.979 -1.192,0.264 -2.251,0.529 -2.913,0.793 -4.242,1.191 -7.292,2.652 -9.279,4.639 -1.853,1.859 -2.786,4.244 -2.786,7.293 0,3.839 1.462,7.021 4.375,9.277 2.917,2.385 6.895,3.576 11.8,3.576 2.648,0 5.168,-0.396 7.816,-0.928 2.654,-0.66 5.434,-1.588 8.22,-2.785 l -2.918,-9.67 c -1.853,1.192 -3.841,2.25 -5.698,2.912 -1.986,0.664 -3.846,0.928 -5.831,0.928 -1.589,0 -2.786,-0.264 -3.713,-0.793 -0.794,-0.533 -1.192,-1.193 -1.192,-2.119 0,-1.463 1.855,-2.654 5.566,-3.582 0.928,-0.264 1.457,-0.396 1.859,-0.529 4.904,-1.455 8.348,-3.051 10.205,-4.903 1.987,-1.988 2.914,-4.507 2.914,-7.691 0,-4.104 -1.589,-7.42 -4.771,-9.939 -3.047,-2.518 -7.289,-3.84 -12.457,-3.84 -3.448,0 -6.763,0.396 -9.809,1.191 C 5.566,-2.918 2.653,-1.592 0,0" />
          </g>
          <g
             transform="translate(701.9268,140.0254)"
             id="g881">
            <path
               inkscape:connector-curvature="0"
               id="path883"
               style="fill:#e5ad23;fill-opacity:1;fill-rule:nonzero;stroke:none"
               d="m 0,0 c 0,-2.918 -0.53,-5.566 -1.723,-8.221 -1.057,-2.515 -2.651,-4.904 -4.77,-6.89 -2.252,-2.125 -4.64,-3.711 -7.288,-4.774 -2.785,-1.056 -5.571,-1.586 -8.616,-1.586 -3.051,0 -5.964,0.53 -8.618,1.586 -2.647,1.063 -5.036,2.649 -7.155,4.774 -2.123,1.986 -3.712,4.242 -4.903,6.89 -1.065,2.522 -1.594,5.303 -1.594,8.221 0,2.918 0.529,5.697 1.594,8.35 1.191,2.515 2.78,4.904 4.903,6.892 2.119,2.117 4.508,3.578 7.155,4.639 2.654,1.058 5.567,1.588 8.618,1.588 3.177,0 5.962,-0.53 8.616,-1.588 C -11,18.82 -8.612,17.359 -6.493,15.242 -4.374,13.123 -2.78,10.865 -1.589,8.217 -0.53,5.697 0,2.918 0,0 m -14.05,0 c 0,3.049 -0.663,5.299 -2.252,7.021 -1.457,1.727 -3.447,2.655 -6.095,2.655 -2.521,0 -4.64,-0.928 -6.097,-2.655 -1.461,-1.722 -2.255,-3.972 -2.255,-7.021 0,-2.918 0.794,-5.303 2.255,-7.027 1.457,-1.725 3.576,-2.518 6.097,-2.518 2.648,0 4.638,0.793 6.095,2.518 1.589,1.724 2.252,4.109 2.252,7.027" />
          </g>
          <g
             transform="translate(710.0127,120.1406)"
             id="g885">
            <path
               inkscape:connector-curvature="0"
               id="path887"
               style="fill:#e5ad23;fill-opacity:1;fill-rule:nonzero;stroke:none"
               d="m 0,0 v 40.029 h 12.992 v -8.088 c 1.854,3.186 3.973,5.567 6.492,7.163 2.516,1.455 5.434,2.25 8.882,2.25 2.516,0 4.904,-0.53 6.89,-1.325 1.986,-0.795 3.58,-1.984 4.904,-3.58 1.06,-1.322 1.854,-2.912 2.257,-4.902 0.396,-1.986 0.661,-4.774 0.661,-8.613 V 0 h -14.05 v 21.473 c 0,3.181 -0.529,5.433 -1.589,6.896 -1.064,1.455 -2.786,2.25 -5.042,2.25 -2.913,0 -5.036,-1.058 -6.492,-3.316 -1.324,-2.119 -1.987,-5.698 -1.987,-10.469 L 13.918,0 Z" />
          </g>
          <g
             transform="translate(703.3916,417.1084)"
             id="g889">
            <path
               inkscape:connector-curvature="0"
               id="path891"
               style="fill:#e5ad23;fill-opacity:1;fill-rule:nonzero;stroke:none"
               d="m 0,0 -8.81,-3.271 c 5.363,-15.116 8.291,-31.384 8.291,-48.338 0,-4.616 -0.226,-9.177 -0.648,-13.683 l 9.375,-0.627 c 0.434,4.712 0.667,9.484 0.667,14.31 C 8.875,-33.505 5.739,-16.134 0,0" />
          </g>
          <g
             transform="translate(558.3203,220.9473)"
             id="g893">
            <path
               inkscape:connector-curvature="0"
               id="path895"
               style="fill:#e5ad23;fill-opacity:1;fill-rule:nonzero;stroke:none"
               d="m 0,0 c -15.705,0 -30.819,2.516 -44.978,7.146 -3.751,-1.978 -7.583,-3.82 -11.51,-5.49 -0.144,-0.06 -0.29,-0.117 -0.434,-0.177 C -39.313,-5.533 -20.108,-9.395 0,-9.395 c 48.132,0 91.098,22.094 119.328,56.688 l -8.571,4.381 C 84.24,20.088 44.469,0 0,0" />
          </g>
          <g
             transform="translate(441.6821,219.5352)"
             id="g897">
            <path
               inkscape:connector-curvature="0"
               id="path899"
               style="fill:#e47128;fill-opacity:1;fill-rule:nonzero;stroke:none"
               d="M 0,0 C -21.463,0 -41.833,4.674 -60.154,13.053 L -64.849,5.168 C -45.139,-4.002 -23.17,-9.131 0,-9.131 c 21.177,0 41.352,4.283 59.716,12.022 C 55.719,4.482 51.807,6.24 47.983,8.148 32.965,2.875 16.819,0 0,0" />
          </g>
          <g
             transform="translate(552.4727,271.1309)"
             id="g901">
            <path
               inkscape:connector-curvature="0"
               id="path903"
               style="fill:#e5ad23;fill-opacity:1;fill-rule:nonzero;stroke:none"
               d="M 0,0 C 0.009,0 0.017,-0.004 0.023,-0.004 0.017,-0.004 0.009,0 0,0" />
          </g>
          <g
             transform="translate(554.5205,271.0293)"
             id="g905">
            <path
               inkscape:connector-curvature="0"
               id="path907"
               style="fill:#e5ad23;fill-opacity:1;fill-rule:nonzero;stroke:none"
               d="M 0,0 C 1.26,-0.057 2.524,-0.098 3.8,-0.098 5.079,-0.098 6.349,-0.057 7.614,0 6.347,-0.051 5.076,-0.096 3.796,-0.096 2.523,-0.096 1.262,-0.051 0,0" />
          </g>
          <g
             transform="translate(554.3145,459.9658)"
             id="g909">
            <path
               inkscape:connector-curvature="0"
               id="path911"
               style="fill:#e5ad23;fill-opacity:1;fill-rule:nonzero;stroke:none"
               d="M 0,0 C 1.311,0.054 2.624,0.099 3.947,0.1 2.624,0.099 1.31,0.062 0,0" />
          </g>
          <g
             transform="translate(550.6484,459.731)"
             id="g913">
            <path
               inkscape:connector-curvature="0"
               id="path915"
               style="fill:#e5ad23;fill-opacity:1;fill-rule:nonzero;stroke:none"
               d="M 0,0 V 0 C 0.003,0 0.004,0 0.006,0 0.004,0 0.003,0 0,0" />
          </g>
          <g
             transform="translate(564.1133,271.125)"
             id="g917">
            <path
               inkscape:connector-curvature="0"
               id="path919"
               style="fill:#e5ad23;fill-opacity:1;fill-rule:nonzero;stroke:none"
               d="M 0,0 C 0.021,0.002 0.04,0.002 0.061,0.006 H 0.062 C 0.041,0.006 0.021,0.002 0,0" />
          </g>
          <g
             transform="translate(562.3379,459.9663)"
             id="g921">
            <path
               inkscape:connector-curvature="0"
               id="path923"
               style="fill:#e5ad23;fill-opacity:1;fill-rule:nonzero;stroke:none"
               d="M 0,0 C -1.334,0.056 -2.67,0.101 -4.018,0.101 H -4.02 c 1.349,0 2.686,-0.046 4.021,-0.102 C 0,0 0,0 0,0" />
          </g>
          <g
             transform="translate(595.6299,364.3545)"
             id="g925">
            <path
               inkscape:connector-curvature="0"
               id="path927"
               style="fill:#e5ad23;fill-opacity:1;fill-rule:nonzero;stroke:none"
               d="m 0,0 c 0,33.746 -10.866,64.951 -29.28,90.321 -2.649,0.236 -5.324,0.377 -8.033,0.377 -1.23,0 -2.45,-0.044 -3.667,-0.093 C -21.057,65.797 -9.131,34.293 -9.131,0 c 0,-33.273 -11.235,-63.909 -30.102,-88.358 0.64,-0.014 1.276,-0.049 1.92,-0.049 3.298,0 6.55,0.191 9.755,0.539 C -10.197,-62.95 0,-32.672 0,0" />
          </g>
          <g
             transform="translate(672.6201,365.4995)"
             id="g929">
            <path
               inkscape:connector-curvature="0"
               id="path931"
               style="fill:#e5ad23;fill-opacity:1;fill-rule:nonzero;stroke:none"
               d="m 0,0 c 0,63.125 -51.175,114.299 -114.3,114.299 -4.692,0 -9.316,-0.289 -13.861,-0.839 -3.962,-0.48 -7.86,-1.156 -11.687,-2.03 3.089,-2.502 6.077,-5.122 8.947,-7.866 3.831,0.61 7.731,1.013 11.688,1.195 1.629,0.076 3.266,0.119 4.913,0.119 57.922,0 104.878,-46.956 104.878,-104.878 0,-3.787 -0.206,-7.525 -0.597,-11.208 l 9.292,-1.675 C -0.253,-8.653 0,-4.357 0,0" />
          </g>
          <g
             transform="translate(383.3794,235.6973)"
             id="g933">
            <path
               inkscape:connector-curvature="0"
               id="path935"
               style="fill:#62aeb2;fill-opacity:1;fill-rule:nonzero;stroke:none"
               d="m 0,0 2.881,4.838 c -47.274,21.193 -80.206,68.66 -80.206,123.819 0,8.489 0.321,14.111 1.814,22.167 l -18.228,2.079 c -1.249,-7.899 -1.907,-15.995 -1.907,-24.246 0,-61.852 36.484,-115.178 89.1,-139.651 l 4.695,7.885 z" />
          </g>
          <g
             transform="translate(475.9927,495.5977)"
             id="g937">
            <path
               inkscape:connector-curvature="0"
               id="path939"
               style="fill:#62aeb2;fill-opacity:1;fill-rule:nonzero;stroke:none"
               d="m 0,0 c 4.099,-1.069 8.124,-2.323 12.062,-3.756 2.162,1.206 4.357,2.358 6.585,3.453 1.45,0.713 2.909,1.406 4.384,2.071 3.797,1.711 7.685,3.255 11.648,4.638 14.921,5.208 30.952,8.047 47.649,8.047 50.216,0 94.445,-25.61 120.356,-64.478 l 7.703,5.385 C 182.777,-3.349 135.73,23.848 82.328,23.848 61.15,23.848 40.972,19.57 22.608,11.833 18.644,10.163 14.768,8.325 10.98,6.34 9.503,5.566 8.039,4.77 6.59,3.949 -6.357,7.861 -20.087,9.974 -34.311,9.974 c -3.094,0 -6.163,-0.111 -9.207,-0.307 l -0.323,-5.623 c 3.149,0.219 6.326,0.339 9.53,0.339 C -22.457,4.383 -10.959,2.857 0,0" />
          </g>
          <g
             transform="translate(342.8081,347.3779)"
             id="g941">
            <path
               inkscape:connector-curvature="0"
               id="path943"
               style="fill:#62aeb2;fill-opacity:1;fill-rule:nonzero;stroke:none"
               d="m 0,0 4.169,2.559 c -0.711,4.703 -1.083,9.516 -1.083,14.418 0,51.248 40.26,93.047 90.872,95.611 1.237,1.59 2.509,3.154 3.806,4.693 1.986,2.356 4.035,4.656 6.155,6.887 -1.673,0.08 -3.352,0.136 -5.045,0.136 -59.276,0 -107.328,-48.053 -107.328,-107.327 0,-57.863 45.79,-105.023 103.111,-107.238 l -5.896,7.424 C 43.744,-78.327 7.513,-44.065 0,0" />
          </g>
          <g
             transform="translate(454.5591,264.8711)"
             id="g945">
            <path
               inkscape:connector-curvature="0"
               id="path947"
               style="fill:#62aeb2;fill-opacity:1;fill-rule:nonzero;stroke:none"
               d="m 0,0 c -1.312,1.354 -2.598,2.729 -3.857,4.131 -5.416,6.037 -10.324,12.535 -14.674,19.422 l -10.18,-1.379 c 3.833,-6.455 8.123,-12.606 12.825,-18.408 1.262,-1.559 2.553,-3.09 3.872,-4.596 2.034,-2.32 4.137,-4.578 6.305,-6.772 2.299,-2.324 4.68,-4.566 7.121,-6.742 l 10.99,2.959 C 10.322,-9.689 8.29,-7.939 6.311,-6.131 4.144,-4.154 2.042,-2.105 0,0" />
          </g>
          <g
             transform="translate(420.0469,407.7637)"
             id="g949">
            <path
               inkscape:connector-curvature="0"
               id="path951"
               style="fill:#62aeb2;fill-opacity:1;fill-rule:nonzero;stroke:none"
               d="m 0,0 -9.694,0.332 c -3.889,-13.529 -5.979,-27.818 -5.979,-42.596 0,-20.788 4.126,-40.609 11.596,-58.699 H 6.143 C -1.84,-83.025 -6.279,-63.164 -6.279,-42.264 -6.279,-27.56 -4.082,-13.369 0,0" />
          </g>
          <g
             transform="translate(458.4263,365.4995)"
             id="g953">
            <path
               inkscape:connector-curvature="0"
               id="path955"
               style="fill:#62aeb2;fill-opacity:1;fill-rule:nonzero;stroke:none"
               d="m 0,0 c 0,-17.657 4.593,-34.231 12.636,-48.619 l 4.824,2.261 c -0.085,0.15 -0.164,0.305 -0.247,0.456 -0.309,0.553 -0.611,1.11 -0.909,1.671 -0.37,0.698 -0.728,1.404 -1.082,2.114 -0.377,0.757 -0.743,1.519 -1.101,2.286 -0.322,0.692 -0.638,1.387 -0.944,2.088 -0.239,0.55 -0.476,1.1 -0.706,1.654 -0.434,1.049 -0.854,2.106 -1.251,3.173 -0.178,0.479 -0.342,0.965 -0.512,1.449 -0.281,0.795 -0.552,1.595 -0.813,2.401 -0.16,0.498 -0.323,0.994 -0.476,1.496 -0.35,1.149 -0.68,2.307 -0.986,3.474 -0.119,0.448 -0.225,0.9 -0.337,1.351 -0.232,0.939 -0.45,1.884 -0.654,2.834 -0.087,0.408 -0.181,0.812 -0.263,1.222 -0.251,1.249 -0.473,2.509 -0.674,3.776 -0.067,0.418 -0.126,0.838 -0.186,1.258 -0.161,1.109 -0.303,2.223 -0.425,3.343 -0.031,0.282 -0.069,0.562 -0.097,0.844 -0.133,1.337 -0.23,2.684 -0.307,4.037 -0.023,0.4 -0.041,0.801 -0.059,1.202 -0.058,1.316 -0.097,2.637 -0.1,3.965 0,0.088 -0.007,0.175 -0.007,0.264 0,0.173 0.012,0.344 0.013,0.517 0.007,1.306 0.039,2.606 0.099,3.898 0.025,0.564 0.069,1.123 0.105,1.685 0.058,0.914 0.124,1.826 0.208,2.733 0.058,0.626 0.125,1.249 0.195,1.872 0.094,0.837 0.202,1.671 0.318,2.502 0.089,0.638 0.178,1.276 0.28,1.91 0.132,0.823 0.284,1.64 0.438,2.456 0.116,0.616 0.222,1.236 0.349,1.848 0.271,1.292 0.566,2.576 0.888,3.849 0.192,0.756 0.41,1.501 0.62,2.251 0.166,0.593 0.328,1.188 0.505,1.777 0.243,0.808 0.505,1.608 0.77,2.407 0.164,0.498 0.33,0.995 0.503,1.489 0.297,0.848 0.604,1.692 0.924,2.531 0.146,0.38 0.298,0.759 0.449,1.138 0.369,0.93 0.743,1.856 1.14,2.771 0.007,0.016 0.015,0.032 0.022,0.048 1.999,4.596 4.359,8.995 7.034,13.177 0.004,0.009 0.01,0.017 0.015,0.025 1.34,2.093 2.745,4.138 4.24,6.115 l -5.094,2.048 C 7.191,42.509 0,22.1 0,0" />
          </g>
          <g
             transform="translate(581.1611,243.5664)"
             id="g957">
            <path
               inkscape:connector-curvature="0"
               id="path959"
               style="fill:#00868e;fill-opacity:1;fill-rule:nonzero;stroke:none"
               d="m 0,0 -2.615,9.418 -2.535,9.131 c 45.885,7.797 81.619,45.39 86.59,92.177 0.391,3.682 0.597,7.42 0.597,11.207 0,57.922 -46.956,104.878 -104.878,104.878 -1.647,0 -3.284,-0.043 -4.913,-0.119 -3.957,-0.182 -7.857,-0.585 -11.688,-1.194 -1.485,-0.237 -2.96,-0.499 -4.422,-0.797 -2.233,-0.454 -4.436,-0.984 -6.613,-1.578 -2.298,-0.625 -4.565,-1.328 -6.796,-2.103 -3.646,-1.267 -7.203,-2.727 -10.653,-4.372 -4.115,-1.962 -8.082,-4.187 -11.881,-6.648 -2.119,-1.375 -4.185,-2.822 -6.195,-4.34 -2.869,1.81 -5.835,3.481 -8.89,4.998 2.008,1.632 4.07,3.201 6.187,4.695 3.793,2.68 7.758,5.133 11.873,7.343 3.445,1.849 6.998,3.525 10.644,5.02 2.225,0.913 4.484,1.764 6.778,2.54 2.179,0.735 4.39,1.399 6.626,2.004 1.455,0.394 2.919,0.766 4.395,1.103 3.826,0.874 7.725,1.551 11.687,2.031 4.545,0.549 9.169,0.838 13.861,0.838 63.125,0 114.3,-51.173 114.3,-114.299 0,-4.357 -0.253,-8.653 -0.727,-12.883 l 9.607,-1.732 C 93.994,53.27 52.901,9.85 0,0 m -22.841,27.365 c -1.275,0 -2.54,0.041 -3.8,0.098 -0.676,0.025 -1.35,0.058 -2.024,0.098 -0.007,0 -0.015,0.003 -0.023,0.003 -19.058,1.165 -36.591,7.956 -50.95,18.756 -1.006,0.758 -1.994,1.537 -2.969,2.332 -0.391,0.323 -0.775,0.651 -1.161,0.975 -0.656,0.555 -1.306,1.115 -1.947,1.686 -0.425,0.38 -0.849,0.761 -1.269,1.148 -0.604,0.56 -1.197,1.131 -1.786,1.705 -0.4,0.389 -0.807,0.772 -1.2,1.168 -0.863,0.869 -1.708,1.756 -2.536,2.66 -0.474,0.516 -0.932,1.047 -1.394,1.574 -0.414,0.471 -0.827,0.942 -1.231,1.418 -0.487,0.58 -0.966,1.162 -1.439,1.752 -0.354,0.442 -0.701,0.885 -1.048,1.332 -0.48,0.621 -0.96,1.241 -1.424,1.869 -0.029,0.041 -0.06,0.079 -0.089,0.118 l -4.694,-2.575 -4.419,-2.419 c -12.258,17.162 -19.475,38.172 -19.475,60.87 0,25.55 9.142,48.961 24.325,67.153 l 4.675,-2.22 4.99,-2.369 c 7.854,8.892 17.353,16.287 28.026,21.725 0.266,0.137 0.532,0.277 0.803,0.411 0.77,0.384 1.547,0.755 2.33,1.118 0.419,0.194 0.841,0.382 1.263,0.571 9.537,4.253 19.904,6.968 30.794,7.843 0.003,0 0.004,0 0.006,0 1.216,0.097 2.434,0.183 3.66,0.234 1.31,0.062 2.624,0.099 3.948,0.101 0.018,0 0.036,0 0.054,0 h 0.002 0.002 c 1.348,0 2.684,-0.044 4.018,-0.1 0.008,-0.001 0.015,-0.001 0.024,-0.002 1.471,-0.062 2.93,-0.163 4.382,-0.292 0.116,-0.009 0.234,-0.015 0.352,-0.026 1.395,-0.128 2.778,-0.294 4.156,-0.483 0.171,-0.023 0.344,-0.041 0.514,-0.065 1.33,-0.189 2.645,-0.414 3.956,-0.657 0.213,-0.041 0.431,-0.075 0.646,-0.116 1.267,-0.245 2.521,-0.522 3.769,-0.817 0.252,-0.06 0.505,-0.113 0.756,-0.175 1.208,-0.295 2.404,-0.621 3.593,-0.963 0.283,-0.082 0.571,-0.158 0.853,-0.243 1.152,-0.343 2.293,-0.713 3.426,-1.099 0.31,-0.106 0.623,-0.207 0.933,-0.316 1.1,-0.387 2.186,-0.798 3.267,-1.225 0.332,-0.13 0.666,-0.257 0.997,-0.392 1.047,-0.427 2.082,-0.877 3.11,-1.339 0.354,-0.159 0.708,-0.315 1.059,-0.479 0.995,-0.462 1.978,-0.945 2.954,-1.441 0.371,-0.189 0.742,-0.376 1.109,-0.569 0.945,-0.495 1.876,-1.009 2.801,-1.535 0.387,-0.219 0.771,-0.439 1.154,-0.664 0.893,-0.524 1.775,-1.065 2.648,-1.617 0.399,-0.253 0.796,-0.506 1.192,-0.764 0.841,-0.55 1.672,-1.114 2.493,-1.69 0.411,-0.286 0.819,-0.577 1.224,-0.869 0.792,-0.573 1.573,-1.158 2.346,-1.754 0.417,-0.323 0.831,-0.648 1.242,-0.977 0.742,-0.593 1.473,-1.194 2.196,-1.808 0.424,-0.36 0.843,-0.725 1.261,-1.092 0.691,-0.608 1.375,-1.224 2.048,-1.852 0.426,-0.397 0.846,-0.802 1.267,-1.207 0.642,-0.622 1.279,-1.25 1.904,-1.89 0.426,-0.437 0.845,-0.881 1.263,-1.326 0.595,-0.633 1.184,-1.27 1.761,-1.918 0.425,-0.478 0.84,-0.964 1.255,-1.449 0.547,-0.641 1.091,-1.284 1.621,-1.939 0.419,-0.518 0.826,-1.045 1.235,-1.572 0.501,-0.647 1,-1.295 1.485,-1.954 0.41,-0.559 0.806,-1.128 1.205,-1.696 0.455,-0.649 0.91,-1.3 1.35,-1.962 0.4,-0.601 0.783,-1.212 1.168,-1.822 0.412,-0.652 0.825,-1.301 1.22,-1.963 0.384,-0.643 0.752,-1.297 1.121,-1.95 0.368,-0.65 0.738,-1.297 1.092,-1.956 0.367,-0.687 0.715,-1.386 1.065,-2.083 0.326,-0.644 0.655,-1.286 0.965,-1.939 0.348,-0.731 0.673,-1.474 1.002,-2.216 0.283,-0.637 0.573,-1.272 0.842,-1.917 0.324,-0.778 0.624,-1.567 0.929,-2.354 0.242,-0.627 0.493,-1.25 0.722,-1.883 0.299,-0.828 0.571,-1.668 0.848,-2.506 0.201,-0.61 0.413,-1.215 0.602,-1.83 0.272,-0.884 0.513,-1.781 0.759,-2.676 0.162,-0.585 0.335,-1.164 0.486,-1.753 0.242,-0.952 0.451,-1.916 0.665,-2.879 0.12,-0.546 0.256,-1.087 0.367,-1.638 0.211,-1.038 0.384,-2.089 0.56,-3.138 0.082,-0.488 0.18,-0.97 0.255,-1.461 0.178,-1.174 0.316,-2.361 0.451,-3.549 0.042,-0.376 0.1,-0.747 0.139,-1.124 0.148,-1.468 0.256,-2.947 0.337,-4.434 0.005,-0.103 0.018,-0.205 0.023,-0.307 0.082,-1.609 0.125,-3.227 0.125,-4.855 0,-1.619 -0.044,-3.227 -0.124,-4.826 -0.013,-0.244 -0.04,-0.484 -0.054,-0.728 -0.077,-1.336 -0.171,-2.667 -0.304,-3.987 -0.045,-0.459 -0.114,-0.911 -0.167,-1.368 -0.125,-1.096 -0.253,-2.193 -0.416,-3.278 -0.083,-0.549 -0.189,-1.089 -0.28,-1.634 -0.167,-0.983 -0.329,-1.966 -0.526,-2.937 -0.119,-0.594 -0.261,-1.179 -0.391,-1.769 -0.203,-0.911 -0.402,-1.823 -0.629,-2.724 -0.157,-0.62 -0.335,-1.231 -0.505,-1.847 -0.234,-0.855 -0.467,-1.711 -0.726,-2.557 -0.195,-0.639 -0.41,-1.267 -0.617,-1.901 -0.265,-0.806 -0.53,-1.613 -0.816,-2.411 -0.234,-0.65 -0.484,-1.291 -0.732,-1.933 -0.294,-0.764 -0.586,-1.527 -0.899,-2.28 -0.272,-0.658 -0.561,-1.307 -0.849,-1.957 -0.317,-0.721 -0.636,-1.441 -0.971,-2.152 -0.314,-0.663 -0.641,-1.317 -0.968,-1.972 -0.34,-0.679 -0.682,-1.356 -1.038,-2.026 -0.354,-0.666 -0.72,-1.324 -1.089,-1.98 -0.359,-0.639 -0.722,-1.273 -1.095,-1.902 -0.395,-0.668 -0.802,-1.328 -1.213,-1.985 -0.375,-0.595 -0.753,-1.189 -1.14,-1.779 -0.44,-0.664 -0.888,-1.324 -1.343,-1.979 -0.387,-0.556 -0.777,-1.107 -1.176,-1.656 -0.484,-0.664 -0.975,-1.322 -1.476,-1.972 -0.395,-0.514 -0.794,-1.022 -1.2,-1.526 -0.531,-0.664 -1.068,-1.32 -1.617,-1.969 -0.396,-0.468 -0.799,-0.929 -1.204,-1.39 -0.583,-0.66 -1.171,-1.317 -1.77,-1.963 -0.394,-0.422 -0.793,-0.836 -1.194,-1.25 -0.636,-0.66 -1.277,-1.315 -1.932,-1.955 -0.383,-0.375 -0.775,-0.74 -1.164,-1.111 -0.694,-0.655 -1.391,-1.307 -2.105,-1.942 -0.366,-0.324 -0.739,-0.641 -1.11,-0.961 -0.759,-0.654 -1.523,-1.305 -2.303,-1.937 -0.334,-0.27 -0.676,-0.53 -1.014,-0.797 -0.834,-0.654 -1.673,-1.307 -2.53,-1.934 -0.289,-0.213 -0.586,-0.416 -0.879,-0.625 -0.92,-0.66 -1.848,-1.314 -2.792,-1.941 C 29.148,42.947 28.922,42.809 28.7,42.664 27.67,41.994 26.633,41.334 25.576,40.703 25.463,40.635 25.347,40.572 25.234,40.506 12.77,33.131 -1.529,28.541 -16.819,27.578 c -0.056,-0.006 -0.113,-0.012 -0.168,-0.014 -0.021,-0.003 -0.04,-0.003 -0.061,-0.005 -0.657,-0.039 -1.316,-0.071 -1.978,-0.096 -1.266,-0.057 -2.536,-0.098 -3.815,-0.098 M -108.238,5.303 c -3.926,-1.059 -7.932,-1.924 -12.006,-2.582 -6.262,-1.014 -12.685,-1.549 -19.235,-1.549 -66.062,0 -119.615,53.557 -119.615,119.616 0,66.06 53.553,119.613 119.615,119.613 5.743,0 11.389,-0.413 16.916,-1.196 4.087,-0.579 8.108,-1.362 12.052,-2.343 3.042,-0.757 6.038,-1.628 8.984,-2.611 -4.136,-2.904 -8.102,-6.029 -11.885,-9.36 -2.126,-1.871 -4.197,-3.802 -6.202,-5.799 -1.277,-1.272 -2.524,-2.572 -3.749,-3.893 -22.715,-24.472 -36.612,-57.243 -36.612,-93.266 0,-36.992 14.653,-70.558 38.464,-95.226 1.261,-1.305 2.544,-2.59 3.856,-3.846 2.041,-1.955 4.148,-3.84 6.308,-5.668 3.836,-3.244 7.848,-6.289 12.028,-9.103 -2.922,-1.039 -5.897,-1.971 -8.919,-2.787 m 221.269,98.007 c 0.244,1.801 0.455,3.614 0.63,5.437 0.413,4.34 0.633,8.737 0.633,13.186 0,16.046 -2.766,31.444 -7.829,45.756 -0.55,1.554 -1.119,3.099 -1.724,4.626 l 6.893,2.746 8.729,3.476 c -3.067,7.752 -6.75,15.191 -10.98,22.267 l -7.722,-5.398 -6.098,-4.262 c -1.315,2.244 -2.692,4.45 -4.129,6.611 -24.569,36.953 -66.575,61.311 -114.275,61.311 -13.423,0 -26.389,-1.937 -38.65,-5.531 -3.959,-1.162 -7.849,-2.487 -11.651,-3.988 -1.476,-0.582 -2.935,-1.198 -4.386,-1.829 -2.231,-0.972 -4.43,-2 -6.597,-3.084 -2.298,-1.15 -4.563,-2.357 -6.785,-3.63 -2.941,1.19 -5.935,2.273 -8.978,3.248 -3.943,1.264 -7.968,2.342 -12.066,3.228 -8.871,1.919 -18.079,2.939 -27.525,2.939 -5.952,0 -11.807,-0.41 -17.545,-1.186 v 6.053 5.634 c -47.353,-5.868 -87.438,-35.177 -108.28,-75.958 -1.506,-2.943 0.317,1.31 -0.982,-1.749 l -12.972,2.059 c -4.076,-8.46 -7.828,-18.427 -10.767,-32.195 l 24.257,-2.727 c -0.699,-2.652 -0.383,-1.799 -0.915,-4.514 -1.588,-8.106 -2.428,-16.479 -2.428,-25.048 0,-71.595 58.038,-129.634 129.632,-129.634 10.329,0 20.368,1.233 30,3.516 4.071,0.965 8.063,2.127 11.975,3.465 0.891,0.304 1.789,0.594 2.672,0.916 2.115,0.775 4.194,1.625 6.256,2.506 2.248,-1.229 4.536,-2.399 6.859,-3.504 2.182,-1.039 4.398,-2.02 6.641,-2.946 1.471,-0.603 2.952,-1.189 4.447,-1.744 3.829,-1.424 7.742,-2.679 11.726,-3.763 11.492,-3.123 23.581,-4.801 36.062,-4.801 64.248,0 118.17,44.185 133.053,103.826 l 7.379,-1.056 C 112.708,67.543 103.657,49.154 91.403,33.371 l 8.534,-4.31 c 15.737,20.773 26.325,45.657 29.862,72.763 l -9.37,0.83 z" />
          </g>
          <g
             transform="translate(554.6494,454.96)"
             id="g961">
            <path
               inkscape:connector-curvature="0"
               id="path963"
               style="fill:#00868e;fill-opacity:1;fill-rule:nonzero;stroke:none"
               d="m 0,0 c -10.023,-0.405 -19.616,-2.459 -28.527,-5.896 21.724,-21.656 35.173,-51.611 35.173,-84.709 0,-13.873 -2.363,-27.191 -6.707,-39.58 l -12.005,2.938 c 4.153,11.435 6.425,23.771 6.425,36.642 0,31.303 -13.42,59.455 -34.8,79.071 -3.475,-1.972 -6.812,-4.159 -9.978,-6.562 20.346,-17.563 33.238,-43.523 33.238,-72.509 0,-28.309 -12.292,-53.734 -31.815,-71.269 14.298,-10.416 31.794,-16.689 50.743,-17.09 18.867,24.449 30.103,55.086 30.103,88.359 C 31.85,-56.312 19.924,-24.808 0,0" />
          </g>
          <g
             transform="translate(393.1943,500.7769)"
             id="g965">
            <path
               inkscape:connector-curvature="0"
               id="path967"
               style="fill:#e5ad23;fill-opacity:1;fill-rule:nonzero;stroke:none"
               d="M 0,0 -2.466,8.942 C -39.654,-4.079 -70.318,-30.977 -88.254,-65.542 l 9.666,-1.535 C -61.654,-36.083 -33.706,-11.967 0,0" />
          </g>
        </g>
      </g>
    </g>
  </g>
</svg>
